<svg width="21" height="21" viewBox="0 0 21 21" fill="none" xmlns="http://www.w3.org/2000/svg">
<path fill-rule="evenodd" clip-rule="evenodd" d="M10.3 0C16 0 20.6 4.6 20.6 10.3C20.6 16 16 20.6 10.3 20.6C4.6 20.6 0 16 0 10.3C0 4.6 4.6 0 10.3 0Z" fill="#7AD9AB"/>
<path fill-rule="evenodd" clip-rule="evenodd" d="M19.5 5.60001L10.4 14.7L6.1 10.4C5.8 10.1 5.4 10.1 5.1 10.4C4.8 10.7 4.8 11.1 5.1 11.4L9.8 16.1C9.8 16.1 9.8 16.1 9.8 16.2C10 16.4 10.3 16.5 10.6 16.3C10.7 16.3 10.8 16.2 10.9 16.1C10.9 16.1 10.9 16.1 10.9 16L20.1 7.00001C19.9 6.50001 19.7 6.00001 19.5 5.60001Z" fill="#4D3D78"/>
</svg>
