<svg width="44" height="24" viewBox="0 0 44 24" fill="none" xmlns="http://www.w3.org/2000/svg">
<g clip-path="url(#clip0)">
<path d="M3 5.6V0H0V11.4V18H3V17.3C5.8 19.3 9.8 19.1 12.3 16.5C15.1 13.7 15.1 9.1 12.3 6.3C9.8 3.8 5.8 3.6 3 5.6ZM10.2 14.4C8.6 16 5.9 16 4.3 14.4C3.5 13.6 3.1 12.5 3.1 11.4C3.1 10.3 3.5 9.3 4.3 8.4C5.9 6.8 8.6 6.8 10.2 8.4C11.8 10.1 11.8 12.8 10.2 14.4Z" fill="white"/>
<path d="M41.1999 6.3C38.6999 3.8 34.6999 3.5 31.8999 5.5V4.2H28.8999V11.4V23H31.8999V17.3C34.6999 19.3 38.6999 19.1 41.1999 16.5C43.9999 13.7 43.9999 9.2 41.1999 6.3ZM38.9999 14.4C37.3999 16 34.6999 16 33.0999 14.4C32.2999 13.6 31.8999 12.5 31.8999 11.4C31.8999 10.3 32.2999 9.3 33.0999 8.4C34.6999 6.8 37.3999 6.8 38.9999 8.4C40.6999 10.1 40.6999 12.8 38.9999 14.4Z" fill="white"/>
<path d="M19.5 0H16.5V18H19.5V0Z" fill="white"/>
<path d="M25.3999 8H22.3999V18H25.3999V8Z" fill="white"/>
<path d="M25.5001 -0.0999756H22.6001V2.80002H25.5001V-0.0999756Z" fill="white"/>
</g>
<defs>
<clipPath id="clip0">
<rect width="43.3" height="23.3" fill="white"/>
</clipPath>
</defs>
</svg>
