<svg width="16" height="14" viewBox="0 0 16 14" fill="none" xmlns="http://www.w3.org/2000/svg">
<path fill-rule="evenodd" clip-rule="evenodd" d="M0.7 13.2L14 0L14.7 0.7L1.4 13.9L0.7 13.2ZM8.1 3.8C6.4 3.8 4.9 5.2 4.9 7C4.9 7.2 4.9 7.3 5 7.5L2.3 10.2C0.9 9.2 0 7.9 0 7C0 6 1 4.7 2.4 3.7C4 2.5 6 1.8 8 1.8C8.8 1.8 9.6 2 10.4 2.2L8.6 3.9C8.5 3.9 8.3 3.8 8.1 3.8ZM8.1 10.2C9.9 10.2 11.3 8.8 11.3 7C11.3 6.5 11.2 6.1 11 5.7L13.3 3.4C13.4 3.5 13.5 3.5 13.6 3.6C15 4.7 16 6 16 7C16 8 15 9.3 13.6 10.3C12 11.5 10 12.2 8 12.2C7 12.2 6 12 5 11.7L6.8 9.9C7.2 10.1 7.7 10.2 8.1 10.2Z" fill="#5A468E"/>
</svg>
