<svg width="21" height="21" viewBox="0 0 21 21" fill="none" xmlns="http://www.w3.org/2000/svg">
<g clip-path="url(#clip0)">
<path class="google-logo" d="M10.3 0C4.80005 0 0.300049 4.5 0.300049 10C0.300049 15.5 4.80005 20 10.3 20C15.8 20 20.3 15.5 20.3 10C20.3 4.5 15.8 0 10.3 0ZM10.3 14C8.10005 14 6.30005 12.2 6.30005 10C6.30005 7.8 8.10005 6 10.3 6C11.3 6 12.3 6.4 13 7.1L11.9 8.1C11.5 7.7 10.9 7.5 10.3 7.5C8.90005 7.5 7.80005 8.6 7.80005 10C7.80005 11.4 8.90005 12.5 10.3 12.5C11.5 12.5 12.5 11.6 12.8 10.5H10.3V9H14.2C14.3 9.3 14.3 9.7 14.3 10C14.3 12.2 12.5 14 10.3 14Z" fill="#7AD9AB"/>
</g>
<defs>
<clipPath id="clip0">
<rect width="20.6" height="20.6" fill="white"/>
</clipPath>
</defs>
</svg>
