<svg id="filter" xmlns="http://www.w3.org/2000/svg" width="17.031" height="17" viewBox="0 0 17.031 17">
  <metadata><?xpacket begin="﻿" id="W5M0MpCehiHzreSzNTczkc9d"?>
<x:xmpmeta xmlns:x="adobe:ns:meta/" x:xmptk="Adobe XMP Core 5.6-c140 79.160451, 2017/05/06-01:08:21        ">
   <rdf:RDF xmlns:rdf="http://www.w3.org/1999/02/22-rdf-syntax-ns#">
      <rdf:Description rdf:about=""/>
   </rdf:RDF>
</x:xmpmeta>
                                                                                                    
                                                                                                    
                                                                                                    
                                                                                                    
                                                                                                    
                                                                                                    
                                                                                                    
                                                                                                    
                                                                                                    
                                                                                                    
                                                                                                    
                                                                                                    
                                                                                                    
                                                                                                    
                                                                                                    
                                                                                                    
                                                                                                    
                                                                                                    
                                                                                                    
                                                                                                    
                           
<?xpacket end="w"?></metadata>
<defs>
    <style>
      .cls-1 {
        fill: #a4a4ab;
        fill-rule: evenodd;
      }
    </style>
  </defs>
  <path id="Фигура_2" data-name="Фигура 2" class="cls-1" d="M610.48,99.277a0.461,0.461,0,0,0,.428-0.4,8.122,8.122,0,0,0,.044-2.4,0.407,0.407,0,0,0-.382-0.352A1.814,1.814,0,0,1,609.039,95a1.791,1.791,0,0,1,.349-1.872,0.407,0.407,0,0,0,.039-0.518,8.387,8.387,0,0,0-1.668-1.726,0.474,0.474,0,0,0-.582,0,1.976,1.976,0,0,1-1.881.205,1.8,1.8,0,0,1-1.075-1.538,0.46,0.46,0,0,0-.395-0.428,7.854,7.854,0,0,0-2.4-.044,0.407,0.407,0,0,0-.352.382,1.815,1.815,0,0,1-1.132,1.531,1.791,1.791,0,0,1-1.872-.349,0.4,0.4,0,0,0-.517-0.039,8.123,8.123,0,0,0-1.727,1.668,0.45,0.45,0,0,0,0,.582,1.827,1.827,0,0,1,.261,1.858,1.8,1.8,0,0,1-1.538,1.075,0.461,0.461,0,0,0-.428.4,8.122,8.122,0,0,0-.044,2.4,0.407,0.407,0,0,0,.382.352,1.814,1.814,0,0,1,1.531,1.131,1.791,1.791,0,0,1-.349,1.872,0.407,0.407,0,0,0-.039.518,8.4,8.4,0,0,0,1.668,1.726,0.474,0.474,0,0,0,.582,0,1.8,1.8,0,0,1,2.934,1.277,0.461,0.461,0,0,0,.395.428,7.872,7.872,0,0,0,2.4.044,0.407,0.407,0,0,0,.352-0.382,1.814,1.814,0,0,1,1.132-1.531,1.792,1.792,0,0,1,1.872.349,0.4,0.4,0,0,0,.517.04,8.117,8.117,0,0,0,1.726-1.668,0.45,0.45,0,0,0,0-.583,1.727,1.727,0,0,1-.239-1.8A1.8,1.8,0,0,1,610.48,99.277Zm-9.056.711a2.666,2.666,0,1,1,3.509-1.381A2.668,2.668,0,0,1,601.424,99.988Z" transform="translate(-594 -89)"/>
</svg>
