<?xml version="1.0" encoding="utf-8"?>
<!-- Generator: Adobe Illustrator 21.0.0, SVG Export Plug-In . SVG Version: 6.00 Build 0)  -->
<svg version="1.1" id="Слой_1" xmlns="http://www.w3.org/2000/svg" xmlns:xlink="http://www.w3.org/1999/xlink" x="0px" y="0px"
	 viewBox="0 0 40 40" style="enable-background:new 0 0 40 40;" xml:space="preserve">
<style type="text/css">
	.st0{fill:none;}
	.st1{fill:#75150C;}
</style>
<rect class="st0" width="40" height="40"/>
<path class="st1" d="M21.3,20l1.3,1.3c0.4,0.4,0.4,1,0,1.3c-0.4,0.4-1,0.4-1.3,0L20,21.3l-1.3,1.3c-0.4,0.4-1,0.4-1.3,0
	c-0.4-0.4-0.4-1,0-1.3l1.3-1.3l-1.3-1.3c-0.4-0.4-0.4-1,0-1.3c0.4-0.4,1-0.4,1.3,0l1.3,1.3l1.3-1.3c0.4-0.4,1-0.4,1.3,0
	c0.4,0.4,0.4,1,0,1.3L21.3,20z"/>
</svg>
